<mxfile host="app.diagrams.net" agent="Mozilla/5.0 (X11; Linux x86_64) AppleWebKit/537.36 (KHTML, like Gecko) Chrome/131.0.0.0 Safari/537.36" version="25.0.3">
  <diagram name="Page-1" id="ad52d381-51e7-2e0d-a935-2d0ddd2fd229">
    <mxGraphModel dx="3328" dy="1826" grid="1" gridSize="10" guides="1" tooltips="1" connect="1" arrows="1" fold="1" page="1" pageScale="1" pageWidth="1100" pageHeight="850" background="none" math="0" shadow="0">
      <root>
        <mxCell id="0" />
        <mxCell id="1" parent="0" />
        <mxCell id="2c924340bb9dbf6c-4" value="&lt;div&gt;&lt;span style=&quot;font-size: 16px;&quot;&gt;Знание&lt;br&gt;Незнание&lt;br&gt;Истина&lt;/span&gt;&lt;/div&gt;" style="ellipse;whiteSpace=wrap;html=1;rounded=1;shadow=1;comic=0;labelBackgroundColor=none;strokeWidth=1;fontFamily=Verdana;fontSize=12;align=center;perimeterSpacing=0;strokeColor=#A4CC8D;fillStyle=auto;fillColor=#E7F5E7;verticalAlign=middle;fontColor=default;" parent="1" vertex="1">
          <mxGeometry x="930" y="40" width="140" height="140" as="geometry" />
        </mxCell>
        <mxCell id="osHT3w525VFrPAvfwfCk-3" style="edgeStyle=orthogonalEdgeStyle;rounded=0;orthogonalLoop=1;jettySize=auto;html=1;exitX=0.5;exitY=1;exitDx=0;exitDy=0;entryX=0.5;entryY=0;entryDx=0;entryDy=0;curved=1;strokeColor=#B3B3B3;" parent="1" source="2c924340bb9dbf6c-23" edge="1">
          <mxGeometry relative="1" as="geometry">
            <mxPoint x="-130" y="540" as="targetPoint" />
          </mxGeometry>
        </mxCell>
        <mxCell id="2c924340bb9dbf6c-23" value="End" style="whiteSpace=wrap;html=1;rounded=1;shadow=1;comic=0;labelBackgroundColor=none;strokeWidth=2;fontFamily=Verdana;fontSize=12;align=center;arcSize=50;" parent="1" vertex="1">
          <mxGeometry x="-360" y="305" width="100" height="40" as="geometry" />
        </mxCell>
        <mxCell id="2c924340bb9dbf6c-47" value="" style="edgeStyle=none;rounded=0;html=1;labelBackgroundColor=none;startArrow=none;startFill=0;startSize=5;endArrow=classicThin;endFill=1;endSize=5;jettySize=auto;orthogonalLoop=1;strokeColor=#696969;strokeWidth=2;fontFamily=Verdana;fontSize=12;exitX=1;exitY=0;exitDx=0;exitDy=0;entryX=0;entryY=0;entryDx=0;entryDy=0;curved=1;align=center;verticalAlign=middle;fontColor=default;" parent="1" source="GqTlXlMeytFH90FR9I8b-3" target="GqTlXlMeytFH90FR9I8b-5" edge="1">
          <mxGeometry relative="1" as="geometry">
            <mxPoint x="1489.5801290947334" y="546.3921948857624" as="sourcePoint" />
            <Array as="points">
              <mxPoint x="1750" y="347" />
            </Array>
          </mxGeometry>
        </mxCell>
        <mxCell id="2c924340bb9dbf6c-51" value="&lt;font style=&quot;font-size: 17px;&quot;&gt;Демокрит&lt;/font&gt;" style="rounded=1;whiteSpace=wrap;html=1;shadow=1;comic=0;labelBackgroundColor=none;strokeWidth=1;fontFamily=Verdana;fontSize=12;align=center;fillColor=#f7f0ff;strokeColor=#D2CBD9;resizable=1;autosize=1;" parent="1" vertex="1">
          <mxGeometry x="1610" y="40" width="100" height="40" as="geometry" />
        </mxCell>
        <mxCell id="2c924340bb9dbf6c-66" value="" style="edgeStyle=none;rounded=1;html=1;labelBackgroundColor=none;startArrow=none;startFill=0;startSize=5;endArrow=classicThin;endFill=1;endSize=5;jettySize=auto;orthogonalLoop=1;strokeColor=#B3B3B3;strokeWidth=2;fontFamily=Verdana;fontSize=12;entryX=0.5;entryY=0;entryDx=0;entryDy=0;align=center;verticalAlign=middle;fontColor=default;" parent="1" source="2c924340bb9dbf6c-51" target="GqTlXlMeytFH90FR9I8b-2" edge="1">
          <mxGeometry relative="1" as="geometry" />
        </mxCell>
        <mxCell id="GqTlXlMeytFH90FR9I8b-2" value="&lt;div&gt;&lt;font style=&quot;font-size: 16px;&quot;&gt;Необходимость&lt;/font&gt;&lt;/div&gt;&lt;div&gt;&lt;font style=&quot;font-size: 16px;&quot;&gt;Случайность&lt;/font&gt;&lt;/div&gt;" style="ellipse;whiteSpace=wrap;html=1;rounded=1;shadow=1;comic=0;labelBackgroundColor=none;strokeWidth=1;fontFamily=Verdana;fontSize=12;align=center;perimeterSpacing=0;strokeColor=#D2CBD9;fillStyle=auto;fillColor=#f7f0ff;verticalAlign=middle;fontColor=default;autosize=0;resizable=1;" vertex="1" parent="1">
          <mxGeometry x="1590" y="147" width="140" height="140" as="geometry" />
        </mxCell>
        <mxCell id="GqTlXlMeytFH90FR9I8b-3" value="&lt;span style=&quot;font-size: 16px; background-color: initial;&quot;&gt;Фреквентистская&lt;br&gt;статистика&lt;br&gt;(теорвер)&lt;/span&gt;" style="ellipse;whiteSpace=wrap;html=1;rounded=1;shadow=1;comic=0;labelBackgroundColor=none;strokeWidth=1;fontFamily=Verdana;fontSize=12;align=center;perimeterSpacing=0;strokeColor=#D2CBD9;fillStyle=auto;fillColor=#f7f0ff;verticalAlign=middle;fontColor=default;autosize=0;resizable=1;horizontal=1;" vertex="1" parent="1">
          <mxGeometry x="1590" y="355" width="140" height="135" as="geometry" />
        </mxCell>
        <mxCell id="GqTlXlMeytFH90FR9I8b-4" value="" style="edgeStyle=none;rounded=1;html=1;labelBackgroundColor=none;startArrow=none;startFill=0;startSize=5;endArrow=classicThin;endFill=1;endSize=5;jettySize=auto;orthogonalLoop=1;strokeColor=#696969;strokeWidth=2;fontFamily=Verdana;fontSize=12;align=center;verticalAlign=middle;fontColor=default;" edge="1" parent="1" target="GqTlXlMeytFH90FR9I8b-3">
          <mxGeometry relative="1" as="geometry">
            <mxPoint x="1660" y="287" as="sourcePoint" />
            <mxPoint x="1670" y="157" as="targetPoint" />
          </mxGeometry>
        </mxCell>
        <mxCell id="GqTlXlMeytFH90FR9I8b-5" value="&lt;span style=&quot;font-size: 16px; background-color: initial;&quot;&gt;Байесовская&lt;br&gt;статистика&lt;br&gt;&lt;/span&gt;" style="ellipse;whiteSpace=wrap;html=1;rounded=1;shadow=1;comic=0;labelBackgroundColor=none;strokeWidth=1;fontFamily=Verdana;fontSize=12;align=center;perimeterSpacing=0;strokeColor=#D2CBD9;fillStyle=auto;fillColor=#f7f0ff;verticalAlign=middle;fontColor=default;autosize=0;resizable=1;horizontal=1;" vertex="1" parent="1">
          <mxGeometry x="1770" y="357" width="140" height="135" as="geometry" />
        </mxCell>
        <mxCell id="GqTlXlMeytFH90FR9I8b-7" value="" style="edgeStyle=none;rounded=0;html=1;labelBackgroundColor=none;startArrow=none;startFill=0;startSize=5;endArrow=classicThin;endFill=1;endSize=5;jettySize=auto;orthogonalLoop=1;strokeColor=#696969;strokeWidth=2;fontFamily=Verdana;fontSize=12;entryX=1;entryY=1;entryDx=0;entryDy=0;exitX=0;exitY=1;exitDx=0;exitDy=0;align=center;verticalAlign=middle;fontColor=default;curved=1;" edge="1" parent="1" source="GqTlXlMeytFH90FR9I8b-5" target="GqTlXlMeytFH90FR9I8b-3">
          <mxGeometry relative="1" as="geometry">
            <mxPoint x="1670" y="297" as="sourcePoint" />
            <mxPoint x="1670" y="365" as="targetPoint" />
            <Array as="points">
              <mxPoint x="1750" y="497" />
            </Array>
          </mxGeometry>
        </mxCell>
        <mxCell id="GqTlXlMeytFH90FR9I8b-8" value="&lt;font style=&quot;font-size: 17px;&quot;&gt;Лаплас&lt;br&gt;Байес&lt;/font&gt;" style="rounded=1;whiteSpace=wrap;html=1;shadow=1;comic=0;labelBackgroundColor=none;strokeWidth=1;fontFamily=Verdana;fontSize=12;align=center;fillColor=#f7f0ff;strokeColor=#D2CBD9;resizable=1;autosize=1;" vertex="1" parent="1">
          <mxGeometry x="1800" y="238" width="80" height="50" as="geometry" />
        </mxCell>
        <mxCell id="GqTlXlMeytFH90FR9I8b-9" value="" style="edgeStyle=none;rounded=1;html=1;labelBackgroundColor=none;startArrow=none;startFill=0;startSize=5;endArrow=classicThin;endFill=1;endSize=5;jettySize=auto;orthogonalLoop=1;strokeColor=#B3B3B3;strokeWidth=2;fontFamily=Verdana;fontSize=12;entryX=0.5;entryY=0;entryDx=0;entryDy=0;" edge="1" parent="1" source="GqTlXlMeytFH90FR9I8b-8" target="GqTlXlMeytFH90FR9I8b-5">
          <mxGeometry relative="1" as="geometry">
            <mxPoint x="1670" y="87" as="sourcePoint" />
            <mxPoint x="1670" y="157" as="targetPoint" />
          </mxGeometry>
        </mxCell>
        <mxCell id="GqTlXlMeytFH90FR9I8b-10" value="&lt;span style=&quot;font-size: 17px;&quot;&gt;Венн&lt;/span&gt;" style="rounded=1;whiteSpace=wrap;html=1;shadow=1;comic=0;labelBackgroundColor=none;strokeWidth=1;fontFamily=Verdana;fontSize=12;align=center;fillColor=#f7f0ff;strokeColor=#D2CBD9;resizable=1;autosize=1;" vertex="1" parent="1">
          <mxGeometry x="1550" y="307" width="60" height="30" as="geometry" />
        </mxCell>
        <mxCell id="GqTlXlMeytFH90FR9I8b-11" value="" style="edgeStyle=none;rounded=1;html=1;labelBackgroundColor=none;startArrow=none;startFill=0;startSize=5;endArrow=classicThin;endFill=1;endSize=5;jettySize=auto;orthogonalLoop=1;strokeColor=#B3B3B3;strokeWidth=2;fontFamily=Verdana;fontSize=12;entryX=0;entryY=0;entryDx=0;entryDy=0;exitX=0.5;exitY=1;exitDx=0;exitDy=0;" edge="1" parent="1" source="GqTlXlMeytFH90FR9I8b-10" target="GqTlXlMeytFH90FR9I8b-3">
          <mxGeometry relative="1" as="geometry">
            <mxPoint x="1850" y="292" as="sourcePoint" />
            <mxPoint x="1850" y="367" as="targetPoint" />
          </mxGeometry>
        </mxCell>
        <mxCell id="GqTlXlMeytFH90FR9I8b-12" value="&lt;span style=&quot;font-size: 16px; background-color: initial;&quot;&gt;Теория&lt;br&gt;информации&lt;/span&gt;" style="ellipse;whiteSpace=wrap;html=1;rounded=1;shadow=1;comic=0;labelBackgroundColor=none;strokeWidth=1;fontFamily=Verdana;fontSize=12;align=center;perimeterSpacing=0;strokeColor=#D2CBD9;fillStyle=auto;fillColor=#f7f0ff;verticalAlign=middle;fontColor=default;autosize=0;resizable=1;horizontal=1;" vertex="1" parent="1">
          <mxGeometry x="1590" y="563" width="140" height="135" as="geometry" />
        </mxCell>
        <mxCell id="GqTlXlMeytFH90FR9I8b-13" value="&lt;span style=&quot;font-size: 17px;&quot;&gt;Шеннон&lt;/span&gt;" style="rounded=1;whiteSpace=wrap;html=1;shadow=1;comic=0;labelBackgroundColor=none;strokeWidth=1;fontFamily=Verdana;fontSize=12;align=center;fillColor=#f7f0ff;strokeColor=#D2CBD9;resizable=1;autosize=1;" vertex="1" parent="1">
          <mxGeometry x="1540" y="513" width="80" height="30" as="geometry" />
        </mxCell>
        <mxCell id="GqTlXlMeytFH90FR9I8b-14" value="" style="edgeStyle=none;rounded=1;html=1;labelBackgroundColor=none;startArrow=none;startFill=0;startSize=5;endArrow=classicThin;endFill=1;endSize=5;jettySize=auto;orthogonalLoop=1;strokeColor=#B3B3B3;strokeWidth=2;fontFamily=Verdana;fontSize=12;entryX=0;entryY=0;entryDx=0;entryDy=0;exitX=0.5;exitY=1;exitDx=0;exitDy=0;" edge="1" parent="1" source="GqTlXlMeytFH90FR9I8b-13" target="GqTlXlMeytFH90FR9I8b-12">
          <mxGeometry relative="1" as="geometry">
            <mxPoint x="1600" y="328" as="sourcePoint" />
            <mxPoint x="1620" y="371" as="targetPoint" />
          </mxGeometry>
        </mxCell>
        <mxCell id="GqTlXlMeytFH90FR9I8b-15" value="" style="edgeStyle=none;rounded=1;html=1;labelBackgroundColor=none;startArrow=none;startFill=0;startSize=5;endArrow=classicThin;endFill=1;endSize=5;jettySize=auto;orthogonalLoop=1;strokeColor=#696969;strokeWidth=2;fontFamily=Verdana;fontSize=12;exitX=0.5;exitY=1;exitDx=0;exitDy=0;align=center;verticalAlign=middle;fontColor=default;entryX=0.5;entryY=0;entryDx=0;entryDy=0;" edge="1" parent="1" target="GqTlXlMeytFH90FR9I8b-12">
          <mxGeometry relative="1" as="geometry">
            <mxPoint x="1660" y="493" as="sourcePoint" />
            <mxPoint x="1700" y="557" as="targetPoint" />
          </mxGeometry>
        </mxCell>
        <mxCell id="GqTlXlMeytFH90FR9I8b-16" value="&lt;span style=&quot;font-size: 17px;&quot;&gt;Сократ&lt;/span&gt;" style="rounded=1;whiteSpace=wrap;html=1;shadow=1;comic=0;labelBackgroundColor=none;strokeWidth=1;fontFamily=Verdana;fontSize=12;align=center;fillColor=#E7F5E7;strokeColor=#A4CC8D;resizable=1;autosize=1;fillStyle=auto;verticalAlign=middle;fontColor=default;" vertex="1" parent="1">
          <mxGeometry x="1179" y="95" width="70" height="30" as="geometry" />
        </mxCell>
        <mxCell id="GqTlXlMeytFH90FR9I8b-19" value="" style="edgeStyle=none;rounded=1;html=1;labelBackgroundColor=none;startArrow=none;startFill=0;startSize=5;endArrow=classicThin;endFill=1;endSize=5;jettySize=auto;orthogonalLoop=1;strokeColor=#B3B3B3;strokeWidth=2;fontFamily=Verdana;fontSize=12;exitX=0;exitY=0.5;exitDx=0;exitDy=0;" edge="1" parent="1" source="GqTlXlMeytFH90FR9I8b-16" target="2c924340bb9dbf6c-4">
          <mxGeometry relative="1" as="geometry">
            <mxPoint x="670" y="191" as="sourcePoint" />
            <mxPoint x="670" y="260" as="targetPoint" />
          </mxGeometry>
        </mxCell>
        <mxCell id="GqTlXlMeytFH90FR9I8b-20" value="&lt;div&gt;&lt;span style=&quot;font-size: 16px;&quot;&gt;Ноумен&lt;br&gt;Феномен&lt;/span&gt;&lt;/div&gt;" style="ellipse;whiteSpace=wrap;html=1;rounded=1;shadow=1;comic=0;labelBackgroundColor=none;strokeWidth=1;fontFamily=Verdana;fontSize=12;align=center;perimeterSpacing=0;strokeColor=#A4CC8D;fillStyle=auto;fillColor=#E7F5E7;" vertex="1" parent="1">
          <mxGeometry x="930" y="243" width="140" height="140" as="geometry" />
        </mxCell>
        <mxCell id="GqTlXlMeytFH90FR9I8b-21" value="&lt;div&gt;&lt;span style=&quot;font-size: 16px;&quot;&gt;Дедуктивная&lt;/span&gt;&lt;/div&gt;&lt;div&gt;&lt;span style=&quot;font-size: 16px;&quot;&gt;логика&lt;/span&gt;&lt;/div&gt;&lt;div&gt;&lt;span style=&quot;font-size: 16px;&quot;&gt;(a priori)&lt;/span&gt;&lt;/div&gt;" style="ellipse;whiteSpace=wrap;html=1;rounded=1;shadow=1;comic=0;labelBackgroundColor=none;strokeWidth=1;fontFamily=Verdana;fontSize=12;align=center;perimeterSpacing=0;strokeColor=#A4CC8D;fillStyle=auto;fillColor=#E7F5E7;verticalAlign=middle;fontColor=default;" vertex="1" parent="1">
          <mxGeometry x="841" y="489" width="140" height="140" as="geometry" />
        </mxCell>
        <mxCell id="GqTlXlMeytFH90FR9I8b-22" value="&lt;div&gt;&lt;span style=&quot;font-size: 16px;&quot;&gt;Индуктивная&lt;/span&gt;&lt;/div&gt;&lt;div&gt;&lt;span style=&quot;font-size: 16px;&quot;&gt;логика&lt;/span&gt;&lt;/div&gt;&lt;div&gt;&lt;span style=&quot;font-size: 16px;&quot;&gt;(a posteriori)&lt;/span&gt;&lt;/div&gt;" style="ellipse;whiteSpace=wrap;html=1;rounded=1;shadow=1;comic=0;labelBackgroundColor=none;strokeWidth=1;fontFamily=Verdana;fontSize=12;align=center;perimeterSpacing=0;strokeColor=#A4CC8D;fillStyle=auto;fillColor=#E7F5E7;verticalAlign=middle;fontColor=default;" vertex="1" parent="1">
          <mxGeometry x="1024" y="491.5" width="140" height="140" as="geometry" />
        </mxCell>
        <mxCell id="GqTlXlMeytFH90FR9I8b-23" value="" style="edgeStyle=none;rounded=0;html=1;labelBackgroundColor=none;startArrow=none;startFill=0;startSize=5;endArrow=classicThin;endFill=1;endSize=5;jettySize=auto;orthogonalLoop=1;strokeColor=#696969;strokeWidth=2;fontFamily=Verdana;fontSize=12;entryX=1;entryY=1;entryDx=0;entryDy=0;exitX=0;exitY=1;exitDx=0;exitDy=0;curved=1;align=center;verticalAlign=middle;fontColor=default;" edge="1" parent="1" source="GqTlXlMeytFH90FR9I8b-22" target="GqTlXlMeytFH90FR9I8b-21">
          <mxGeometry relative="1" as="geometry">
            <mxPoint x="1051" y="620" as="sourcePoint" />
            <mxPoint x="971" y="618" as="targetPoint" />
            <Array as="points">
              <mxPoint x="1001" y="638" />
            </Array>
          </mxGeometry>
        </mxCell>
        <mxCell id="GqTlXlMeytFH90FR9I8b-24" value="" style="edgeStyle=none;rounded=0;html=1;labelBackgroundColor=none;startArrow=none;startFill=0;startSize=5;endArrow=classicThin;endFill=1;endSize=5;jettySize=auto;orthogonalLoop=1;strokeColor=#696969;strokeWidth=2;fontFamily=Verdana;fontSize=12;entryX=0;entryY=0;entryDx=0;entryDy=0;curved=1;exitX=0.857;exitY=0.136;exitDx=0;exitDy=0;exitPerimeter=0;align=center;verticalAlign=middle;fontColor=default;" edge="1" parent="1" source="GqTlXlMeytFH90FR9I8b-21" target="GqTlXlMeytFH90FR9I8b-22">
          <mxGeometry relative="1" as="geometry">
            <mxPoint x="961" y="518" as="sourcePoint" />
            <mxPoint x="1041" y="508" as="targetPoint" />
            <Array as="points">
              <mxPoint x="1001" y="478" />
            </Array>
          </mxGeometry>
        </mxCell>
        <mxCell id="GqTlXlMeytFH90FR9I8b-25" value="&lt;span style=&quot;font-size: 17px;&quot;&gt;Платон&lt;/span&gt;" style="rounded=1;whiteSpace=wrap;html=1;shadow=1;comic=0;labelBackgroundColor=none;strokeWidth=1;fontFamily=Verdana;fontSize=12;align=center;fillColor=#E7F5E7;strokeColor=#A4CC8D;resizable=1;autosize=1;fillStyle=auto;verticalAlign=middle;fontColor=default;" vertex="1" parent="1">
          <mxGeometry x="1174" y="298" width="80" height="30" as="geometry" />
        </mxCell>
        <mxCell id="GqTlXlMeytFH90FR9I8b-26" value="" style="edgeStyle=none;rounded=1;html=1;labelBackgroundColor=none;startArrow=none;startFill=0;startSize=5;endArrow=classicThin;endFill=1;endSize=5;jettySize=auto;orthogonalLoop=1;strokeColor=#B3B3B3;strokeWidth=2;fontFamily=Verdana;fontSize=12;exitX=0;exitY=0.5;exitDx=0;exitDy=0;entryX=1;entryY=0.5;entryDx=0;entryDy=0;" edge="1" parent="1" source="GqTlXlMeytFH90FR9I8b-25" target="GqTlXlMeytFH90FR9I8b-20">
          <mxGeometry relative="1" as="geometry">
            <mxPoint x="1210" y="120" as="sourcePoint" />
            <mxPoint x="1080" y="120" as="targetPoint" />
          </mxGeometry>
        </mxCell>
        <mxCell id="GqTlXlMeytFH90FR9I8b-27" value="&lt;font style=&quot;font-size: 17px;&quot;&gt;Аристотель&lt;/font&gt;" style="rounded=1;whiteSpace=wrap;html=1;shadow=1;comic=0;labelBackgroundColor=none;strokeWidth=1;fontFamily=Verdana;fontSize=12;align=center;fillColor=#E7F5E7;strokeColor=#A4CC8D;resizable=1;autosize=1;fillStyle=auto;verticalAlign=middle;fontColor=default;" vertex="1" parent="1">
          <mxGeometry x="1159" y="410" width="110" height="30" as="geometry" />
        </mxCell>
        <mxCell id="GqTlXlMeytFH90FR9I8b-28" value="&lt;span style=&quot;font-size: 17px;&quot;&gt;Евклид&lt;/span&gt;" style="rounded=1;whiteSpace=wrap;html=1;shadow=1;comic=0;labelBackgroundColor=none;strokeWidth=1;fontFamily=Verdana;fontSize=12;align=center;fillColor=#E7F5E7;strokeColor=#A4CC8D;resizable=1;autosize=1;fillStyle=auto;verticalAlign=middle;fontColor=default;" vertex="1" parent="1">
          <mxGeometry x="770" y="369" width="80" height="30" as="geometry" />
        </mxCell>
        <mxCell id="GqTlXlMeytFH90FR9I8b-29" value="&lt;span style=&quot;font-size: 17px;&quot;&gt;Бэкон&lt;/span&gt;" style="rounded=1;whiteSpace=wrap;html=1;shadow=1;comic=0;labelBackgroundColor=none;strokeWidth=1;fontFamily=Verdana;fontSize=12;align=center;fillColor=#E7F5E7;strokeColor=#A4CC8D;resizable=1;autosize=1;fillStyle=auto;verticalAlign=middle;fontColor=default;" vertex="1" parent="1">
          <mxGeometry x="876" y="688" width="70" height="30" as="geometry" />
        </mxCell>
        <mxCell id="GqTlXlMeytFH90FR9I8b-30" value="&lt;span style=&quot;font-size: 17px;&quot;&gt;Кант&lt;/span&gt;" style="rounded=1;whiteSpace=wrap;html=1;shadow=1;comic=0;labelBackgroundColor=none;strokeWidth=1;fontFamily=Verdana;fontSize=12;align=center;fillColor=#E7F5E7;strokeColor=#A4CC8D;resizable=1;autosize=1;fillStyle=auto;verticalAlign=middle;fontColor=default;" vertex="1" parent="1">
          <mxGeometry x="993" y="688" width="60" height="30" as="geometry" />
        </mxCell>
        <mxCell id="GqTlXlMeytFH90FR9I8b-31" value="" style="edgeStyle=none;rounded=0;html=1;labelBackgroundColor=none;startArrow=none;startFill=0;startSize=5;endArrow=classicThin;endFill=1;endSize=5;jettySize=auto;orthogonalLoop=1;strokeColor=#696969;strokeWidth=2;fontFamily=Verdana;fontSize=12;exitX=0.5;exitY=1;exitDx=0;exitDy=0;entryX=0.5;entryY=0;entryDx=0;entryDy=0;align=center;verticalAlign=middle;fontColor=default;curved=1;" edge="1" parent="1" source="2c924340bb9dbf6c-4" target="GqTlXlMeytFH90FR9I8b-20">
          <mxGeometry relative="1" as="geometry">
            <mxPoint x="1210" y="120" as="sourcePoint" />
            <mxPoint x="1080" y="120" as="targetPoint" />
          </mxGeometry>
        </mxCell>
        <mxCell id="GqTlXlMeytFH90FR9I8b-32" value="" style="edgeStyle=none;rounded=0;html=1;labelBackgroundColor=none;startArrow=none;startFill=0;startSize=5;endArrow=classicThin;endFill=1;endSize=5;jettySize=auto;orthogonalLoop=1;strokeColor=#696969;strokeWidth=2;fontFamily=Verdana;fontSize=12;exitX=0;exitY=1;exitDx=0;exitDy=0;entryX=0.5;entryY=0;entryDx=0;entryDy=0;curved=1;align=center;verticalAlign=middle;fontColor=default;" edge="1" parent="1" source="GqTlXlMeytFH90FR9I8b-20" target="GqTlXlMeytFH90FR9I8b-21">
          <mxGeometry relative="1" as="geometry">
            <mxPoint x="1220" y="130" as="sourcePoint" />
            <mxPoint x="1090" y="130" as="targetPoint" />
            <Array as="points">
              <mxPoint x="920" y="400" />
            </Array>
          </mxGeometry>
        </mxCell>
        <mxCell id="GqTlXlMeytFH90FR9I8b-33" value="" style="edgeStyle=none;rounded=0;html=1;labelBackgroundColor=none;startArrow=none;startFill=0;startSize=5;endArrow=classicThin;endFill=1;endSize=5;jettySize=auto;orthogonalLoop=1;strokeColor=#696969;strokeWidth=2;fontFamily=Verdana;fontSize=12;entryX=0.5;entryY=0;entryDx=0;entryDy=0;exitX=1;exitY=1;exitDx=0;exitDy=0;curved=1;align=center;verticalAlign=middle;fontColor=default;" edge="1" parent="1" source="GqTlXlMeytFH90FR9I8b-20" target="GqTlXlMeytFH90FR9I8b-22">
          <mxGeometry relative="1" as="geometry">
            <mxPoint x="1000" y="390" as="sourcePoint" />
            <mxPoint x="1100" y="140" as="targetPoint" />
            <Array as="points">
              <mxPoint x="1090" y="400" />
            </Array>
          </mxGeometry>
        </mxCell>
        <mxCell id="GqTlXlMeytFH90FR9I8b-34" value="" style="edgeStyle=none;rounded=0;html=1;labelBackgroundColor=none;startArrow=none;startFill=0;startSize=5;endArrow=classicThin;endFill=1;endSize=5;jettySize=auto;orthogonalLoop=1;strokeColor=#B3B3B3;strokeWidth=2;fontFamily=Verdana;fontSize=12;entryX=0.707;entryY=0.057;entryDx=0;entryDy=0;entryPerimeter=0;exitX=0;exitY=0.5;exitDx=0;exitDy=0;curved=1;" edge="1" parent="1" source="GqTlXlMeytFH90FR9I8b-27" target="GqTlXlMeytFH90FR9I8b-21">
          <mxGeometry relative="1" as="geometry">
            <mxPoint x="970" y="450" as="sourcePoint" />
            <mxPoint x="1080" y="323" as="targetPoint" />
            <Array as="points">
              <mxPoint x="1030" y="420" />
            </Array>
          </mxGeometry>
        </mxCell>
        <mxCell id="GqTlXlMeytFH90FR9I8b-35" value="" style="edgeStyle=none;rounded=0;html=1;labelBackgroundColor=none;startArrow=none;startFill=0;startSize=5;endArrow=classicThin;endFill=1;endSize=5;jettySize=auto;orthogonalLoop=1;strokeColor=#B3B3B3;strokeWidth=2;fontFamily=Verdana;fontSize=12;entryX=1;entryY=0;entryDx=0;entryDy=0;exitX=0.5;exitY=1;exitDx=0;exitDy=0;curved=1;" edge="1" parent="1" source="GqTlXlMeytFH90FR9I8b-27" target="GqTlXlMeytFH90FR9I8b-22">
          <mxGeometry relative="1" as="geometry">
            <mxPoint x="991" y="446" as="sourcePoint" />
            <mxPoint x="949" y="479" as="targetPoint" />
            <Array as="points">
              <mxPoint x="1210" y="487" />
            </Array>
          </mxGeometry>
        </mxCell>
        <mxCell id="GqTlXlMeytFH90FR9I8b-36" value="" style="edgeStyle=none;rounded=1;html=1;labelBackgroundColor=none;startArrow=none;startFill=0;startSize=5;endArrow=classicThin;endFill=1;endSize=5;jettySize=auto;orthogonalLoop=1;strokeColor=#B3B3B3;strokeWidth=2;fontFamily=Verdana;fontSize=12;exitX=0.5;exitY=0;exitDx=0;exitDy=0;entryX=0.5;entryY=1;entryDx=0;entryDy=0;" edge="1" parent="1" source="GqTlXlMeytFH90FR9I8b-29" target="GqTlXlMeytFH90FR9I8b-21">
          <mxGeometry relative="1" as="geometry">
            <mxPoint x="1206" y="323" as="sourcePoint" />
            <mxPoint x="1081" y="323" as="targetPoint" />
          </mxGeometry>
        </mxCell>
        <mxCell id="GqTlXlMeytFH90FR9I8b-37" value="" style="edgeStyle=none;rounded=1;html=1;labelBackgroundColor=none;startArrow=none;startFill=0;startSize=5;endArrow=classicThin;endFill=1;endSize=5;jettySize=auto;orthogonalLoop=1;strokeColor=#B3B3B3;strokeWidth=2;fontFamily=Verdana;fontSize=12;exitX=0.5;exitY=1;exitDx=0;exitDy=0;entryX=0.5;entryY=0;entryDx=0;entryDy=0;" edge="1" parent="1" source="GqTlXlMeytFH90FR9I8b-16" target="GqTlXlMeytFH90FR9I8b-25">
          <mxGeometry relative="1" as="geometry">
            <mxPoint x="989" y="190" as="sourcePoint" />
            <mxPoint x="989" y="253" as="targetPoint" />
          </mxGeometry>
        </mxCell>
        <mxCell id="GqTlXlMeytFH90FR9I8b-38" value="" style="edgeStyle=none;rounded=1;html=1;labelBackgroundColor=none;startArrow=none;startFill=0;startSize=5;endArrow=classicThin;endFill=1;endSize=5;jettySize=auto;orthogonalLoop=1;strokeColor=#B3B3B3;strokeWidth=2;fontFamily=Verdana;fontSize=12;entryX=0.5;entryY=0;entryDx=0;entryDy=0;exitX=0.5;exitY=1;exitDx=0;exitDy=0;" edge="1" parent="1" source="GqTlXlMeytFH90FR9I8b-25" target="GqTlXlMeytFH90FR9I8b-27">
          <mxGeometry relative="1" as="geometry">
            <mxPoint x="1214" y="330" as="sourcePoint" />
            <mxPoint x="1224" y="308" as="targetPoint" />
          </mxGeometry>
        </mxCell>
        <mxCell id="GqTlXlMeytFH90FR9I8b-39" value="" style="edgeStyle=none;rounded=1;html=1;labelBackgroundColor=none;startArrow=none;startFill=0;startSize=5;endArrow=classicThin;endFill=1;endSize=5;jettySize=auto;orthogonalLoop=1;strokeColor=#B3B3B3;strokeWidth=2;fontFamily=Verdana;fontSize=12;entryX=0.5;entryY=1;entryDx=0;entryDy=0;exitX=0.75;exitY=0;exitDx=0;exitDy=0;" edge="1" parent="1" source="GqTlXlMeytFH90FR9I8b-30" target="GqTlXlMeytFH90FR9I8b-22">
          <mxGeometry relative="1" as="geometry">
            <mxPoint x="1246" y="338" as="sourcePoint" />
            <mxPoint x="1246" y="420" as="targetPoint" />
          </mxGeometry>
        </mxCell>
        <mxCell id="GqTlXlMeytFH90FR9I8b-40" value="" style="edgeStyle=none;rounded=1;html=1;labelBackgroundColor=none;startArrow=none;startFill=0;startSize=5;endArrow=classicThin;endFill=1;endSize=5;jettySize=auto;orthogonalLoop=1;strokeColor=#B3B3B3;strokeWidth=2;fontFamily=Verdana;fontSize=12;entryX=0.7;entryY=0.957;entryDx=0;entryDy=0;exitX=0;exitY=0;exitDx=0;exitDy=0;entryPerimeter=0;" edge="1" parent="1" source="GqTlXlMeytFH90FR9I8b-30" target="GqTlXlMeytFH90FR9I8b-21">
          <mxGeometry relative="1" as="geometry">
            <mxPoint x="1086" y="698" as="sourcePoint" />
            <mxPoint x="1104" y="642" as="targetPoint" />
          </mxGeometry>
        </mxCell>
        <mxCell id="GqTlXlMeytFH90FR9I8b-41" value="" style="edgeStyle=none;rounded=0;html=1;labelBackgroundColor=none;startArrow=none;startFill=0;startSize=5;endArrow=classicThin;endFill=1;endSize=5;jettySize=auto;orthogonalLoop=1;strokeColor=#B3B3B3;strokeWidth=2;fontFamily=Verdana;fontSize=12;entryX=0.307;entryY=0.032;entryDx=0;entryDy=0;entryPerimeter=0;exitX=1;exitY=0.5;exitDx=0;exitDy=0;curved=1;" edge="1" parent="1" source="GqTlXlMeytFH90FR9I8b-28" target="GqTlXlMeytFH90FR9I8b-22">
          <mxGeometry relative="1" as="geometry">
            <mxPoint x="1190" y="435" as="sourcePoint" />
            <mxPoint x="949" y="507" as="targetPoint" />
            <Array as="points">
              <mxPoint x="970" y="390" />
            </Array>
          </mxGeometry>
        </mxCell>
        <mxCell id="GqTlXlMeytFH90FR9I8b-42" value="" style="edgeStyle=none;rounded=0;html=1;labelBackgroundColor=none;startArrow=none;startFill=0;startSize=5;endArrow=classicThin;endFill=1;endSize=5;jettySize=auto;orthogonalLoop=1;strokeColor=#B3B3B3;strokeWidth=2;fontFamily=Verdana;fontSize=12;exitX=0.5;exitY=1;exitDx=0;exitDy=0;curved=1;entryX=0;entryY=0;entryDx=0;entryDy=0;" edge="1" parent="1" source="GqTlXlMeytFH90FR9I8b-28" target="GqTlXlMeytFH90FR9I8b-21">
          <mxGeometry relative="1" as="geometry">
            <mxPoint x="1245" y="450" as="sourcePoint" />
            <mxPoint x="770" y="490" as="targetPoint" />
            <Array as="points">
              <mxPoint x="820" y="460" />
            </Array>
          </mxGeometry>
        </mxCell>
        <mxCell id="GqTlXlMeytFH90FR9I8b-44" value="&lt;div&gt;&lt;span style=&quot;font-size: 16px;&quot;&gt;Алгоритм&lt;/span&gt;&lt;/div&gt;" style="ellipse;whiteSpace=wrap;html=1;rounded=1;shadow=1;comic=0;labelBackgroundColor=none;strokeWidth=1;fontFamily=Verdana;fontSize=12;align=center;perimeterSpacing=0;strokeColor=#889EBF;fillStyle=auto;fillColor=#E3EEFC;" vertex="1" parent="1">
          <mxGeometry x="490" y="492" width="140" height="140" as="geometry" />
        </mxCell>
        <mxCell id="GqTlXlMeytFH90FR9I8b-45" value="&lt;div&gt;&lt;span style=&quot;font-size: 16px;&quot;&gt;Алгебра&lt;/span&gt;&lt;/div&gt;" style="ellipse;whiteSpace=wrap;html=1;rounded=1;shadow=1;comic=0;labelBackgroundColor=none;strokeWidth=1;fontFamily=Verdana;fontSize=12;align=center;perimeterSpacing=0;strokeColor=#889EBF;fillStyle=auto;fillColor=#E3EEFC;" vertex="1" parent="1">
          <mxGeometry x="270" y="492" width="140" height="140" as="geometry" />
        </mxCell>
        <mxCell id="GqTlXlMeytFH90FR9I8b-46" value="&lt;span style=&quot;font-size: 17px;&quot;&gt;Аль-Хорезми&lt;/span&gt;" style="rounded=1;whiteSpace=wrap;html=1;shadow=1;comic=0;labelBackgroundColor=none;strokeWidth=1;fontFamily=Verdana;fontSize=12;align=center;fillColor=#E3EEFC;strokeColor=#889EBF;resizable=1;autosize=1;fillStyle=auto;verticalAlign=middle;fontColor=default;" vertex="1" parent="1">
          <mxGeometry x="390" y="370" width="120" height="30" as="geometry" />
        </mxCell>
        <mxCell id="GqTlXlMeytFH90FR9I8b-47" value="" style="edgeStyle=none;rounded=0;html=1;labelBackgroundColor=none;startArrow=none;startFill=0;startSize=5;endArrow=classicThin;endFill=1;endSize=5;jettySize=auto;orthogonalLoop=1;strokeColor=#B3B3B3;strokeWidth=2;fontFamily=Verdana;fontSize=12;entryX=0.5;entryY=0;entryDx=0;entryDy=0;curved=1;exitX=0.25;exitY=1;exitDx=0;exitDy=0;" edge="1" parent="1" source="GqTlXlMeytFH90FR9I8b-46" target="GqTlXlMeytFH90FR9I8b-45">
          <mxGeometry relative="1" as="geometry">
            <mxPoint x="410" y="440" as="sourcePoint" />
            <mxPoint x="210" y="437.5" as="targetPoint" />
            <Array as="points">
              <mxPoint x="360" y="430" />
            </Array>
          </mxGeometry>
        </mxCell>
        <mxCell id="GqTlXlMeytFH90FR9I8b-48" value="" style="edgeStyle=none;rounded=0;html=1;labelBackgroundColor=none;startArrow=none;startFill=0;startSize=5;endArrow=classicThin;endFill=1;endSize=5;jettySize=auto;orthogonalLoop=1;strokeColor=#B3B3B3;strokeWidth=2;fontFamily=Verdana;fontSize=12;entryX=0.5;entryY=0;entryDx=0;entryDy=0;curved=1;exitX=0.75;exitY=1;exitDx=0;exitDy=0;" edge="1" parent="1" source="GqTlXlMeytFH90FR9I8b-46" target="GqTlXlMeytFH90FR9I8b-44">
          <mxGeometry relative="1" as="geometry">
            <mxPoint x="420" y="410" as="sourcePoint" />
            <mxPoint x="350" y="502" as="targetPoint" />
            <Array as="points">
              <mxPoint x="530" y="420" />
            </Array>
          </mxGeometry>
        </mxCell>
        <mxCell id="GqTlXlMeytFH90FR9I8b-49" value="" style="edgeStyle=none;rounded=0;html=1;labelBackgroundColor=none;startArrow=none;startFill=0;startSize=5;endArrow=classicThin;endFill=1;endSize=5;jettySize=auto;orthogonalLoop=1;strokeColor=#B3B3B3;strokeWidth=2;fontFamily=Verdana;fontSize=12;entryX=1;entryY=0;entryDx=0;entryDy=0;curved=1;exitX=0;exitY=0.5;exitDx=0;exitDy=0;" edge="1" parent="1" source="GqTlXlMeytFH90FR9I8b-28" target="GqTlXlMeytFH90FR9I8b-44">
          <mxGeometry relative="1" as="geometry">
            <mxPoint x="490" y="410" as="sourcePoint" />
            <mxPoint x="570" y="502" as="targetPoint" />
            <Array as="points">
              <mxPoint x="670" y="400" />
            </Array>
          </mxGeometry>
        </mxCell>
        <mxCell id="GqTlXlMeytFH90FR9I8b-50" value="&lt;div&gt;&lt;span style=&quot;font-size: 16px;&quot;&gt;Модель&lt;/span&gt;&lt;/div&gt;" style="ellipse;whiteSpace=wrap;html=1;rounded=1;shadow=1;comic=0;labelBackgroundColor=none;strokeWidth=1;fontFamily=Verdana;fontSize=12;align=center;perimeterSpacing=0;strokeColor=#D7B761;fillStyle=auto;fillColor=#FFF0DE;" vertex="1" parent="1">
          <mxGeometry x="1086" y="906" width="140" height="140" as="geometry" />
        </mxCell>
        <mxCell id="GqTlXlMeytFH90FR9I8b-51" value="&lt;div&gt;&lt;span style=&quot;font-size: 16px;&quot;&gt;Формальный&lt;/span&gt;&lt;/div&gt;&lt;div&gt;&lt;span style=&quot;font-size: 16px;&quot;&gt;язык&lt;/span&gt;&lt;/div&gt;" style="ellipse;whiteSpace=wrap;html=1;rounded=1;shadow=1;comic=0;labelBackgroundColor=none;strokeWidth=1;fontFamily=Verdana;fontSize=12;align=center;perimeterSpacing=0;strokeColor=#D7B761;fillStyle=auto;fillColor=#FFF0DE;" vertex="1" parent="1">
          <mxGeometry x="820" y="906" width="140" height="140" as="geometry" />
        </mxCell>
        <mxCell id="GqTlXlMeytFH90FR9I8b-52" value="&lt;span style=&quot;font-size: 17px;&quot;&gt;Лейбниц&lt;/span&gt;" style="rounded=1;whiteSpace=wrap;html=1;shadow=1;comic=0;labelBackgroundColor=none;strokeWidth=1;fontFamily=Verdana;fontSize=12;align=center;fillColor=#FFF0DE;strokeColor=#D7B761;resizable=1;autosize=1;fillStyle=auto;verticalAlign=middle;fontColor=default;" vertex="1" parent="1">
          <mxGeometry x="980" y="851" width="90" height="30" as="geometry" />
        </mxCell>
        <mxCell id="GqTlXlMeytFH90FR9I8b-53" value="" style="edgeStyle=none;rounded=1;html=1;labelBackgroundColor=none;startArrow=none;startFill=0;startSize=5;endArrow=classicThin;endFill=1;endSize=5;jettySize=auto;orthogonalLoop=1;strokeColor=#B3B3B3;strokeWidth=2;fontFamily=Verdana;fontSize=12;exitX=0.25;exitY=1;exitDx=0;exitDy=0;entryX=1;entryY=0;entryDx=0;entryDy=0;" edge="1" parent="1" source="GqTlXlMeytFH90FR9I8b-52" target="GqTlXlMeytFH90FR9I8b-51">
          <mxGeometry relative="1" as="geometry">
            <mxPoint x="1201" y="644" as="sourcePoint" />
            <mxPoint x="1201" y="585" as="targetPoint" />
          </mxGeometry>
        </mxCell>
        <mxCell id="GqTlXlMeytFH90FR9I8b-54" value="" style="edgeStyle=none;rounded=1;html=1;labelBackgroundColor=none;startArrow=none;startFill=0;startSize=5;endArrow=classicThin;endFill=1;endSize=5;jettySize=auto;orthogonalLoop=1;strokeColor=#B3B3B3;strokeWidth=2;fontFamily=Verdana;fontSize=12;exitX=0.75;exitY=1;exitDx=0;exitDy=0;entryX=0;entryY=0;entryDx=0;entryDy=0;" edge="1" parent="1" source="GqTlXlMeytFH90FR9I8b-52" target="GqTlXlMeytFH90FR9I8b-50">
          <mxGeometry relative="1" as="geometry">
            <mxPoint x="1013" y="866" as="sourcePoint" />
            <mxPoint x="949" y="937" as="targetPoint" />
          </mxGeometry>
        </mxCell>
        <mxCell id="GqTlXlMeytFH90FR9I8b-55" value="&lt;div&gt;&lt;span style=&quot;font-size: 16px;&quot;&gt;Логика&lt;/span&gt;&lt;/div&gt;&lt;div&gt;&lt;span style=&quot;font-size: 16px;&quot;&gt;высказываний&lt;/span&gt;&lt;/div&gt;&lt;div&gt;&lt;span style=&quot;font-size: 16px;&quot;&gt;и предикатов&lt;/span&gt;&lt;/div&gt;" style="ellipse;whiteSpace=wrap;html=1;rounded=1;shadow=1;comic=0;labelBackgroundColor=none;strokeWidth=1;fontFamily=Verdana;fontSize=12;align=center;perimeterSpacing=0;strokeColor=#B87979;fillStyle=auto;fillColor=#F8EBE9;" vertex="1" parent="1">
          <mxGeometry x="203" y="1130" width="140" height="140" as="geometry" />
        </mxCell>
        <mxCell id="GqTlXlMeytFH90FR9I8b-56" value="" style="edgeStyle=none;rounded=0;html=1;labelBackgroundColor=none;startArrow=none;startFill=0;startSize=5;endArrow=classicThin;endFill=1;endSize=5;jettySize=auto;orthogonalLoop=1;strokeColor=#696969;strokeWidth=2;fontFamily=Verdana;fontSize=12;exitX=0;exitY=1;exitDx=0;exitDy=0;entryX=1;entryY=0;entryDx=0;entryDy=0;curved=1;align=center;verticalAlign=middle;fontColor=default;" edge="1" parent="1" source="GqTlXlMeytFH90FR9I8b-21" target="GqTlXlMeytFH90FR9I8b-55">
          <mxGeometry relative="1" as="geometry">
            <mxPoint x="961" y="372" as="sourcePoint" />
            <mxPoint x="921" y="499" as="targetPoint" />
          </mxGeometry>
        </mxCell>
        <mxCell id="GqTlXlMeytFH90FR9I8b-57" value="" style="edgeStyle=none;rounded=0;html=1;labelBackgroundColor=none;startArrow=none;startFill=0;startSize=5;endArrow=classicThin;endFill=1;endSize=5;jettySize=auto;orthogonalLoop=1;strokeColor=#696969;strokeWidth=2;fontFamily=Verdana;fontSize=12;entryX=0.971;entryY=0.371;entryDx=0;entryDy=0;curved=1;align=center;verticalAlign=middle;fontColor=default;entryPerimeter=0;" edge="1" parent="1" source="GqTlXlMeytFH90FR9I8b-51" target="GqTlXlMeytFH90FR9I8b-55">
          <mxGeometry relative="1" as="geometry">
            <mxPoint x="872" y="618" as="sourcePoint" />
            <mxPoint x="269" y="991" as="targetPoint" />
          </mxGeometry>
        </mxCell>
        <mxCell id="GqTlXlMeytFH90FR9I8b-58" value="&lt;span style=&quot;font-size: 17px;&quot;&gt;Фреге&lt;/span&gt;" style="rounded=1;whiteSpace=wrap;html=1;shadow=1;comic=0;labelBackgroundColor=none;strokeWidth=1;fontFamily=Verdana;fontSize=12;align=center;fillColor=#F8EBE9;strokeColor=#B87979;resizable=1;autosize=1;fillStyle=auto;verticalAlign=middle;fontColor=default;" vertex="1" parent="1">
          <mxGeometry x="238" y="1020" width="70" height="30" as="geometry" />
        </mxCell>
        <mxCell id="GqTlXlMeytFH90FR9I8b-60" value="" style="edgeStyle=none;rounded=1;html=1;labelBackgroundColor=none;startArrow=none;startFill=0;startSize=5;endArrow=classicThin;endFill=1;endSize=5;jettySize=auto;orthogonalLoop=1;strokeColor=#B3B3B3;strokeWidth=2;fontFamily=Verdana;fontSize=12;exitX=0.5;exitY=1;exitDx=0;exitDy=0;entryX=0.5;entryY=0;entryDx=0;entryDy=0;" edge="1" parent="1" source="GqTlXlMeytFH90FR9I8b-58" target="GqTlXlMeytFH90FR9I8b-55">
          <mxGeometry relative="1" as="geometry">
            <mxPoint x="283" y="1000" as="sourcePoint" />
            <mxPoint x="1287" y="338" as="targetPoint" />
          </mxGeometry>
        </mxCell>
        <mxCell id="GqTlXlMeytFH90FR9I8b-61" value="&lt;div&gt;&lt;span style=&quot;font-size: 16px;&quot;&gt;Хорновские&lt;/span&gt;&lt;/div&gt;&lt;div&gt;&lt;span style=&quot;font-size: 16px;&quot;&gt;дизъюнкты&lt;/span&gt;&lt;/div&gt;" style="ellipse;whiteSpace=wrap;html=1;rounded=1;shadow=1;comic=0;labelBackgroundColor=none;strokeWidth=1;fontFamily=Verdana;fontSize=12;align=center;perimeterSpacing=0;strokeColor=#B87979;fillStyle=auto;fillColor=#F8EBE9;" vertex="1" parent="1">
          <mxGeometry x="203" y="1320" width="140" height="140" as="geometry" />
        </mxCell>
        <mxCell id="GqTlXlMeytFH90FR9I8b-62" value="" style="edgeStyle=none;rounded=0;html=1;labelBackgroundColor=none;startArrow=none;startFill=0;startSize=5;endArrow=classicThin;endFill=1;endSize=5;jettySize=auto;orthogonalLoop=1;strokeColor=#696969;strokeWidth=2;fontFamily=Verdana;fontSize=12;exitX=0.5;exitY=1;exitDx=0;exitDy=0;entryX=0.5;entryY=0;entryDx=0;entryDy=0;align=center;verticalAlign=middle;fontColor=default;curved=1;" edge="1" parent="1" source="GqTlXlMeytFH90FR9I8b-55" target="GqTlXlMeytFH90FR9I8b-61">
          <mxGeometry relative="1" as="geometry">
            <mxPoint x="283" y="1060" as="sourcePoint" />
            <mxPoint x="283" y="1140" as="targetPoint" />
          </mxGeometry>
        </mxCell>
        <mxCell id="GqTlXlMeytFH90FR9I8b-63" value="&lt;font style=&quot;font-size: 17px;&quot;&gt;Prolog&lt;/font&gt;" style="ellipse;whiteSpace=wrap;html=1;rounded=1;shadow=1;comic=0;labelBackgroundColor=none;strokeWidth=1;fontFamily=Verdana;fontSize=12;align=center;fillStyle=auto;strokeColor=#B87979;verticalAlign=middle;fontColor=default;fillColor=#F8EBE9;" vertex="1" parent="1">
          <mxGeometry x="213" y="1520" width="120" height="80" as="geometry" />
        </mxCell>
        <mxCell id="GqTlXlMeytFH90FR9I8b-64" value="" style="edgeStyle=none;rounded=0;html=1;labelBackgroundColor=none;startArrow=none;startFill=0;startSize=5;endArrow=classicThin;endFill=1;endSize=5;jettySize=auto;orthogonalLoop=1;strokeColor=#696969;strokeWidth=2;fontFamily=Verdana;fontSize=12;entryX=0.5;entryY=0;entryDx=0;entryDy=0;align=center;verticalAlign=middle;fontColor=default;curved=1;exitX=0.5;exitY=1;exitDx=0;exitDy=0;" edge="1" parent="1" source="GqTlXlMeytFH90FR9I8b-61" target="GqTlXlMeytFH90FR9I8b-63">
          <mxGeometry relative="1" as="geometry">
            <mxPoint x="273" y="1460" as="sourcePoint" />
            <mxPoint x="283" y="1330" as="targetPoint" />
          </mxGeometry>
        </mxCell>
        <mxCell id="GqTlXlMeytFH90FR9I8b-65" value="&lt;div&gt;&lt;br&gt;&lt;/div&gt;&lt;div&gt;&lt;span style=&quot;background-color: initial; font-size: 17px;&quot;&gt;Универсальный&lt;/span&gt;&lt;/div&gt;&lt;div&gt;&lt;span style=&quot;font-size: 17px;&quot;&gt;решатель&lt;/span&gt;&lt;/div&gt;&lt;div&gt;&lt;span style=&quot;font-size: 17px;&quot;&gt;задач&lt;/span&gt;&lt;/div&gt;&lt;div&gt;&lt;br&gt;&lt;/div&gt;" style="ellipse;whiteSpace=wrap;html=1;rounded=1;shadow=1;comic=0;labelBackgroundColor=none;strokeWidth=1;fontFamily=Verdana;fontSize=12;align=center;fillStyle=auto;strokeColor=#B87979;verticalAlign=middle;fontColor=default;fillColor=#F8EBE9;autosize=0;" vertex="1" parent="1">
          <mxGeometry x="409" y="1510" width="160" height="100" as="geometry" />
        </mxCell>
        <mxCell id="GqTlXlMeytFH90FR9I8b-66" value="&lt;span style=&quot;font-size: 17px;&quot;&gt;Колмероэ&lt;/span&gt;" style="rounded=1;whiteSpace=wrap;html=1;shadow=1;comic=0;labelBackgroundColor=none;strokeWidth=1;fontFamily=Verdana;fontSize=12;align=center;fillColor=#F8EBE9;strokeColor=#B87979;resizable=1;autosize=1;fillStyle=auto;verticalAlign=middle;fontColor=default;" vertex="1" parent="1">
          <mxGeometry x="113" y="1460" width="90" height="30" as="geometry" />
        </mxCell>
        <mxCell id="GqTlXlMeytFH90FR9I8b-67" value="&lt;span style=&quot;font-size: 17px;&quot;&gt;Ньюэлл&lt;/span&gt;&lt;div&gt;&lt;span style=&quot;font-size: 17px;&quot;&gt;Саймон&lt;/span&gt;&lt;/div&gt;" style="rounded=1;whiteSpace=wrap;html=1;shadow=1;comic=0;labelBackgroundColor=none;strokeWidth=1;fontFamily=Verdana;fontSize=12;align=center;fillColor=#F8EBE9;strokeColor=#B87979;resizable=1;autosize=1;fillStyle=auto;verticalAlign=middle;fontColor=default;" vertex="1" parent="1">
          <mxGeometry x="449" y="1395" width="80" height="50" as="geometry" />
        </mxCell>
        <mxCell id="GqTlXlMeytFH90FR9I8b-68" value="" style="edgeStyle=none;rounded=1;html=1;labelBackgroundColor=none;startArrow=none;startFill=0;startSize=5;endArrow=classicThin;endFill=1;endSize=5;jettySize=auto;orthogonalLoop=1;strokeColor=#B3B3B3;strokeWidth=2;fontFamily=Verdana;fontSize=12;exitX=1;exitY=1;exitDx=0;exitDy=0;entryX=0;entryY=0;entryDx=0;entryDy=0;" edge="1" parent="1" source="GqTlXlMeytFH90FR9I8b-66" target="GqTlXlMeytFH90FR9I8b-63">
          <mxGeometry relative="1" as="geometry">
            <mxPoint x="283" y="1060" as="sourcePoint" />
            <mxPoint x="283" y="1140" as="targetPoint" />
          </mxGeometry>
        </mxCell>
        <mxCell id="GqTlXlMeytFH90FR9I8b-69" value="" style="edgeStyle=none;rounded=1;html=1;labelBackgroundColor=none;startArrow=none;startFill=0;startSize=5;endArrow=classicThin;endFill=1;endSize=5;jettySize=auto;orthogonalLoop=1;strokeColor=#B3B3B3;strokeWidth=2;fontFamily=Verdana;fontSize=12;exitX=0.5;exitY=1;exitDx=0;exitDy=0;entryX=0.5;entryY=0;entryDx=0;entryDy=0;" edge="1" parent="1" source="GqTlXlMeytFH90FR9I8b-67" target="GqTlXlMeytFH90FR9I8b-65">
          <mxGeometry relative="1" as="geometry">
            <mxPoint x="269" y="1070" as="sourcePoint" />
            <mxPoint x="269" y="1150" as="targetPoint" />
          </mxGeometry>
        </mxCell>
        <mxCell id="GqTlXlMeytFH90FR9I8b-70" value="" style="edgeStyle=none;rounded=0;html=1;labelBackgroundColor=none;startArrow=none;startFill=0;startSize=5;endArrow=classicThin;endFill=1;endSize=5;jettySize=auto;orthogonalLoop=1;strokeColor=#696969;strokeWidth=2;fontFamily=Verdana;fontSize=12;entryX=0;entryY=0;entryDx=0;entryDy=0;align=center;verticalAlign=middle;fontColor=default;curved=1;exitX=1;exitY=1;exitDx=0;exitDy=0;" edge="1" parent="1" source="GqTlXlMeytFH90FR9I8b-61" target="GqTlXlMeytFH90FR9I8b-65">
          <mxGeometry relative="1" as="geometry">
            <mxPoint x="283" y="1470" as="sourcePoint" />
            <mxPoint x="283" y="1530" as="targetPoint" />
          </mxGeometry>
        </mxCell>
        <mxCell id="GqTlXlMeytFH90FR9I8b-71" value="&lt;div&gt;&lt;span style=&quot;font-size: 16px;&quot;&gt;Теория&lt;/span&gt;&lt;/div&gt;&lt;div&gt;&lt;span style=&quot;font-size: 16px;&quot;&gt;типов&lt;/span&gt;&lt;/div&gt;" style="ellipse;whiteSpace=wrap;html=1;rounded=1;shadow=1;comic=0;labelBackgroundColor=none;strokeWidth=1;fontFamily=Verdana;fontSize=12;align=center;perimeterSpacing=0;strokeColor=#B87979;fillStyle=auto;fillColor=#F8EBE9;" vertex="1" parent="1">
          <mxGeometry x="-47" y="1470" width="140" height="140" as="geometry" />
        </mxCell>
        <mxCell id="GqTlXlMeytFH90FR9I8b-72" value="&lt;span style=&quot;font-size: 17px;&quot;&gt;Рассел&lt;/span&gt;" style="rounded=1;whiteSpace=wrap;html=1;shadow=1;comic=0;labelBackgroundColor=none;strokeWidth=1;fontFamily=Verdana;fontSize=12;align=center;fillColor=#F8EBE9;strokeColor=#B87979;resizable=1;autosize=1;fillStyle=auto;verticalAlign=middle;fontColor=default;" vertex="1" parent="1">
          <mxGeometry x="-12" y="1360" width="70" height="30" as="geometry" />
        </mxCell>
        <mxCell id="GqTlXlMeytFH90FR9I8b-73" value="&lt;span style=&quot;font-size: 17px;&quot;&gt;Гёдель&lt;/span&gt;" style="rounded=1;whiteSpace=wrap;html=1;shadow=1;comic=0;labelBackgroundColor=none;strokeWidth=1;fontFamily=Verdana;fontSize=12;align=center;fillColor=#F8EBE9;strokeColor=#B87979;resizable=1;autosize=1;fillStyle=auto;verticalAlign=middle;fontColor=default;" vertex="1" parent="1">
          <mxGeometry x="456" y="1240" width="70" height="30" as="geometry" />
        </mxCell>
        <mxCell id="GqTlXlMeytFH90FR9I8b-75" value="" style="edgeStyle=none;rounded=0;html=1;labelBackgroundColor=none;startArrow=none;startFill=0;startSize=5;endArrow=classicThin;endFill=1;endSize=5;jettySize=auto;orthogonalLoop=1;strokeColor=#B3B3B3;strokeWidth=2;fontFamily=Verdana;fontSize=12;entryX=0.964;entryY=0.717;entryDx=0;entryDy=0;exitX=0;exitY=0.5;exitDx=0;exitDy=0;curved=1;entryPerimeter=0;" edge="1" parent="1" source="GqTlXlMeytFH90FR9I8b-73" target="GqTlXlMeytFH90FR9I8b-55">
          <mxGeometry relative="1" as="geometry">
            <mxPoint x="513" y="1200" as="sourcePoint" />
            <mxPoint x="241" y="1542" as="targetPoint" />
            <Array as="points">
              <mxPoint x="393" y="1255" />
            </Array>
          </mxGeometry>
        </mxCell>
        <mxCell id="GqTlXlMeytFH90FR9I8b-76" value="" style="edgeStyle=none;rounded=1;html=1;labelBackgroundColor=none;startArrow=none;startFill=0;startSize=5;endArrow=classicThin;endFill=1;endSize=5;jettySize=auto;orthogonalLoop=1;strokeColor=#B3B3B3;strokeWidth=2;fontFamily=Verdana;fontSize=12;exitX=1;exitY=0;exitDx=0;exitDy=0;entryX=0;entryY=1;entryDx=0;entryDy=0;" edge="1" parent="1" source="GqTlXlMeytFH90FR9I8b-72" target="GqTlXlMeytFH90FR9I8b-55">
          <mxGeometry relative="1" as="geometry">
            <mxPoint x="83" y="1245" as="sourcePoint" />
            <mxPoint x="213" y="1210" as="targetPoint" />
          </mxGeometry>
        </mxCell>
        <mxCell id="GqTlXlMeytFH90FR9I8b-77" value="" style="edgeStyle=none;rounded=1;html=1;labelBackgroundColor=none;startArrow=none;startFill=0;startSize=5;endArrow=classicThin;endFill=1;endSize=5;jettySize=auto;orthogonalLoop=1;strokeColor=#B3B3B3;strokeWidth=2;fontFamily=Verdana;fontSize=12;exitX=0.5;exitY=1;exitDx=0;exitDy=0;entryX=0.5;entryY=0;entryDx=0;entryDy=0;" edge="1" parent="1" source="GqTlXlMeytFH90FR9I8b-72" target="GqTlXlMeytFH90FR9I8b-71">
          <mxGeometry relative="1" as="geometry">
            <mxPoint x="93" y="1255" as="sourcePoint" />
            <mxPoint x="223" y="1220" as="targetPoint" />
          </mxGeometry>
        </mxCell>
        <mxCell id="GqTlXlMeytFH90FR9I8b-78" value="&lt;div&gt;&lt;span style=&quot;font-size: 16px;&quot;&gt;Проблема&lt;/span&gt;&lt;/div&gt;&lt;div&gt;&lt;span style=&quot;font-size: 16px;&quot;&gt;вывода&lt;/span&gt;&lt;/div&gt;" style="ellipse;whiteSpace=wrap;html=1;rounded=1;shadow=1;comic=0;labelBackgroundColor=none;strokeWidth=1;fontFamily=Verdana;fontSize=12;align=center;perimeterSpacing=0;strokeColor=#D6C492;fillStyle=auto;fillColor=#FFF7E0;" vertex="1" parent="1">
          <mxGeometry x="642" y="1125" width="140" height="140" as="geometry" />
        </mxCell>
        <mxCell id="GqTlXlMeytFH90FR9I8b-79" value="" style="edgeStyle=none;rounded=0;html=1;labelBackgroundColor=none;startArrow=none;startFill=0;startSize=5;endArrow=classicThin;endFill=1;endSize=5;jettySize=auto;orthogonalLoop=1;strokeColor=#B3B3B3;strokeWidth=2;fontFamily=Verdana;fontSize=12;exitX=1;exitY=0.5;exitDx=0;exitDy=0;curved=1;entryX=0.055;entryY=0.729;entryDx=0;entryDy=0;entryPerimeter=0;" edge="1" parent="1" source="GqTlXlMeytFH90FR9I8b-73" target="GqTlXlMeytFH90FR9I8b-78">
          <mxGeometry relative="1" as="geometry">
            <mxPoint x="460" y="1180" as="sourcePoint" />
            <mxPoint x="290" y="1180" as="targetPoint" />
            <Array as="points">
              <mxPoint x="610" y="1250" />
            </Array>
          </mxGeometry>
        </mxCell>
        <mxCell id="GqTlXlMeytFH90FR9I8b-80" value="&lt;div&gt;&lt;span style=&quot;font-size: 16px;&quot;&gt;Формальная&lt;/span&gt;&lt;/div&gt;&lt;div&gt;&lt;span style=&quot;font-size: 16px;&quot;&gt;система&lt;/span&gt;&lt;/div&gt;" style="ellipse;whiteSpace=wrap;html=1;rounded=1;shadow=1;comic=0;labelBackgroundColor=none;strokeWidth=1;fontFamily=Verdana;fontSize=12;align=center;perimeterSpacing=0;strokeColor=#D6C492;fillStyle=auto;fillColor=#FFF7E0;" vertex="1" parent="1">
          <mxGeometry x="820" y="1125" width="140" height="140" as="geometry" />
        </mxCell>
        <mxCell id="GqTlXlMeytFH90FR9I8b-81" value="" style="edgeStyle=none;rounded=0;html=1;labelBackgroundColor=none;startArrow=none;startFill=0;startSize=5;endArrow=classicThin;endFill=1;endSize=5;jettySize=auto;orthogonalLoop=1;strokeColor=#696969;strokeWidth=2;fontFamily=Verdana;fontSize=12;exitX=0.5;exitY=1;exitDx=0;exitDy=0;entryX=0.5;entryY=0;entryDx=0;entryDy=0;curved=1;align=center;verticalAlign=middle;fontColor=default;" edge="1" parent="1" source="GqTlXlMeytFH90FR9I8b-51" target="GqTlXlMeytFH90FR9I8b-80">
          <mxGeometry relative="1" as="geometry">
            <mxPoint x="890" y="1071" as="sourcePoint" />
            <mxPoint x="290" y="1205" as="targetPoint" />
          </mxGeometry>
        </mxCell>
        <mxCell id="GqTlXlMeytFH90FR9I8b-82" value="" style="edgeStyle=none;rounded=0;html=1;labelBackgroundColor=none;startArrow=none;startFill=0;startSize=5;endArrow=classicThin;endFill=1;endSize=5;jettySize=auto;orthogonalLoop=1;strokeColor=#696969;strokeWidth=2;fontFamily=Verdana;fontSize=12;entryX=1;entryY=1;entryDx=0;entryDy=0;exitX=0;exitY=1;exitDx=0;exitDy=0;curved=1;align=center;verticalAlign=middle;fontColor=default;" edge="1" parent="1" source="GqTlXlMeytFH90FR9I8b-80" target="GqTlXlMeytFH90FR9I8b-78">
          <mxGeometry relative="1" as="geometry">
            <mxPoint x="835" y="1238" as="sourcePoint" />
            <mxPoint x="750" y="1235" as="targetPoint" />
            <Array as="points">
              <mxPoint x="800" y="1275" />
            </Array>
          </mxGeometry>
        </mxCell>
        <mxCell id="GqTlXlMeytFH90FR9I8b-83" value="" style="edgeStyle=none;rounded=0;html=1;labelBackgroundColor=none;startArrow=none;startFill=0;startSize=5;endArrow=classicThin;endFill=1;endSize=5;jettySize=auto;orthogonalLoop=1;strokeColor=#696969;strokeWidth=2;fontFamily=Verdana;fontSize=12;entryX=0;entryY=0;entryDx=0;entryDy=0;curved=1;exitX=1;exitY=0;exitDx=0;exitDy=0;align=center;verticalAlign=middle;fontColor=default;" edge="1" parent="1" source="GqTlXlMeytFH90FR9I8b-78" target="GqTlXlMeytFH90FR9I8b-80">
          <mxGeometry relative="1" as="geometry">
            <mxPoint x="757" y="1135" as="sourcePoint" />
            <mxPoint x="841" y="1139" as="targetPoint" />
            <Array as="points">
              <mxPoint x="797" y="1115" />
            </Array>
          </mxGeometry>
        </mxCell>
        <mxCell id="GqTlXlMeytFH90FR9I8b-84" value="" style="edgeStyle=none;rounded=0;html=1;labelBackgroundColor=none;startArrow=none;startFill=0;startSize=5;endArrow=classicThin;endFill=1;endSize=5;jettySize=auto;orthogonalLoop=1;strokeColor=#696969;strokeWidth=2;fontFamily=Verdana;fontSize=12;exitX=0.629;exitY=1;exitDx=0;exitDy=0;entryX=0.343;entryY=0.05;entryDx=0;entryDy=0;curved=1;align=center;verticalAlign=middle;fontColor=default;exitPerimeter=0;entryPerimeter=0;" edge="1" parent="1" source="GqTlXlMeytFH90FR9I8b-44" target="GqTlXlMeytFH90FR9I8b-78">
          <mxGeometry relative="1" as="geometry">
            <mxPoint x="872" y="618" as="sourcePoint" />
            <mxPoint x="339" y="1161" as="targetPoint" />
          </mxGeometry>
        </mxCell>
        <mxCell id="GqTlXlMeytFH90FR9I8b-85" value="&lt;span style=&quot;font-size: 16px;&quot;&gt;Машина&lt;/span&gt;&lt;div&gt;&lt;span style=&quot;font-size: 16px;&quot;&gt;Тьюринга&lt;/span&gt;&lt;/div&gt;" style="ellipse;whiteSpace=wrap;html=1;rounded=1;shadow=1;comic=0;labelBackgroundColor=none;strokeWidth=1;fontFamily=Verdana;fontSize=12;align=center;perimeterSpacing=0;strokeColor=#D6C492;fillStyle=auto;fillColor=#FFF7E0;" vertex="1" parent="1">
          <mxGeometry x="642" y="1330" width="140" height="140" as="geometry" />
        </mxCell>
        <mxCell id="GqTlXlMeytFH90FR9I8b-86" value="&lt;div&gt;&lt;span style=&quot;font-size: 16px;&quot;&gt;Лямбда-&lt;/span&gt;&lt;/div&gt;&lt;div&gt;&lt;span style=&quot;font-size: 16px;&quot;&gt;исчисление&lt;/span&gt;&lt;/div&gt;&lt;div&gt;&lt;span style=&quot;font-size: 16px;&quot;&gt;Чёрча&lt;/span&gt;&lt;/div&gt;" style="ellipse;whiteSpace=wrap;html=1;rounded=1;shadow=1;comic=0;labelBackgroundColor=none;strokeWidth=1;fontFamily=Verdana;fontSize=12;align=center;perimeterSpacing=0;strokeColor=#D6C492;fillStyle=auto;fillColor=#FFF7E0;" vertex="1" parent="1">
          <mxGeometry x="859" y="1330" width="140" height="140" as="geometry" />
        </mxCell>
        <mxCell id="GqTlXlMeytFH90FR9I8b-87" value="" style="edgeStyle=none;rounded=0;html=1;labelBackgroundColor=none;startArrow=none;startFill=0;startSize=5;endArrow=classicThin;endFill=1;endSize=5;jettySize=auto;orthogonalLoop=1;strokeColor=#696969;strokeWidth=2;fontFamily=Verdana;fontSize=12;entryX=0.5;entryY=0;entryDx=0;entryDy=0;curved=1;align=center;verticalAlign=middle;fontColor=default;exitX=0.5;exitY=1;exitDx=0;exitDy=0;" edge="1" parent="1" source="GqTlXlMeytFH90FR9I8b-78" target="GqTlXlMeytFH90FR9I8b-85">
          <mxGeometry relative="1" as="geometry">
            <mxPoint x="900" y="1056" as="sourcePoint" />
            <mxPoint x="900" y="1135" as="targetPoint" />
          </mxGeometry>
        </mxCell>
        <mxCell id="GqTlXlMeytFH90FR9I8b-88" value="" style="edgeStyle=none;rounded=0;html=1;labelBackgroundColor=none;startArrow=none;startFill=0;startSize=5;endArrow=classicThin;endFill=1;endSize=5;jettySize=auto;orthogonalLoop=1;strokeColor=#696969;strokeWidth=2;fontFamily=Verdana;fontSize=12;entryX=0.093;entryY=0.229;entryDx=0;entryDy=0;curved=1;align=center;verticalAlign=middle;fontColor=default;exitX=0.686;exitY=0.971;exitDx=0;exitDy=0;exitPerimeter=0;entryPerimeter=0;" edge="1" parent="1" source="GqTlXlMeytFH90FR9I8b-78" target="GqTlXlMeytFH90FR9I8b-86">
          <mxGeometry relative="1" as="geometry">
            <mxPoint x="722" y="1275" as="sourcePoint" />
            <mxPoint x="722" y="1340" as="targetPoint" />
            <Array as="points">
              <mxPoint x="770" y="1320" />
            </Array>
          </mxGeometry>
        </mxCell>
        <mxCell id="GqTlXlMeytFH90FR9I8b-89" value="&lt;span style=&quot;font-size: 17px;&quot;&gt;LISP&lt;/span&gt;&lt;div&gt;&lt;span style=&quot;font-size: 17px;&quot;&gt;Haskell&lt;/span&gt;&lt;/div&gt;" style="ellipse;whiteSpace=wrap;html=1;rounded=1;shadow=1;comic=0;labelBackgroundColor=none;strokeWidth=1;fontFamily=Verdana;fontSize=12;align=center;fillStyle=auto;strokeColor=#D6C492;verticalAlign=middle;fontColor=default;fillColor=#FFF7E0;" vertex="1" parent="1">
          <mxGeometry x="869" y="1550" width="120" height="80" as="geometry" />
        </mxCell>
        <mxCell id="GqTlXlMeytFH90FR9I8b-90" value="" style="edgeStyle=none;rounded=0;html=1;labelBackgroundColor=none;startArrow=none;startFill=0;startSize=5;endArrow=classicThin;endFill=1;endSize=5;jettySize=auto;orthogonalLoop=1;strokeColor=#696969;strokeWidth=2;fontFamily=Verdana;fontSize=12;entryX=0.5;entryY=0;entryDx=0;entryDy=0;curved=1;align=center;verticalAlign=middle;fontColor=default;exitX=0.5;exitY=1;exitDx=0;exitDy=0;" edge="1" parent="1" source="GqTlXlMeytFH90FR9I8b-86" target="GqTlXlMeytFH90FR9I8b-89">
          <mxGeometry relative="1" as="geometry">
            <mxPoint x="722" y="1275" as="sourcePoint" />
            <mxPoint x="722" y="1340" as="targetPoint" />
          </mxGeometry>
        </mxCell>
        <mxCell id="GqTlXlMeytFH90FR9I8b-91" value="&lt;span style=&quot;font-size: 16px;&quot;&gt;Архитектура&lt;/span&gt;&lt;div&gt;&lt;span style=&quot;font-size: 16px;&quot;&gt;фон Неймана&lt;/span&gt;&lt;/div&gt;" style="ellipse;whiteSpace=wrap;html=1;rounded=1;shadow=1;comic=0;labelBackgroundColor=none;strokeWidth=1;fontFamily=Verdana;fontSize=12;align=center;perimeterSpacing=0;strokeColor=#D6C492;fillStyle=auto;fillColor=#FFF7E0;" vertex="1" parent="1">
          <mxGeometry x="642" y="1534" width="140" height="140" as="geometry" />
        </mxCell>
        <mxCell id="GqTlXlMeytFH90FR9I8b-92" value="" style="edgeStyle=none;rounded=0;html=1;labelBackgroundColor=none;startArrow=none;startFill=0;startSize=5;endArrow=classicThin;endFill=1;endSize=5;jettySize=auto;orthogonalLoop=1;strokeColor=#696969;strokeWidth=2;fontFamily=Verdana;fontSize=12;entryX=0.5;entryY=0;entryDx=0;entryDy=0;curved=1;align=center;verticalAlign=middle;fontColor=default;exitX=0.5;exitY=1;exitDx=0;exitDy=0;" edge="1" parent="1" source="GqTlXlMeytFH90FR9I8b-85" target="GqTlXlMeytFH90FR9I8b-91">
          <mxGeometry relative="1" as="geometry">
            <mxPoint x="722" y="1275" as="sourcePoint" />
            <mxPoint x="722" y="1340" as="targetPoint" />
          </mxGeometry>
        </mxCell>
      </root>
    </mxGraphModel>
  </diagram>
</mxfile>
